
      <svg data-logo="logo" xmlns="http://www.w3.org/2000/svg" viewBox="0 0 257 43">
        <g id="logogram" transform="translate(0, 1) rotate(0) "><path d="M40.6035 40.89V0.889954H19.0079L0.603525 19.2943L0.603516 40.89H40.6035Z" fill="#2F2722"/><path fill-rule="evenodd" clip-rule="evenodd" d="M19.9139 27.4315L19.9139 39.5106L11.638 39.5106L11.638 24.0035L23.7171 11.9244L39.2242 11.9244L39.2242 20.2003L27.1451 20.2003L19.9139 27.4315Z" fill="#D62727"/><path fill-rule="evenodd" clip-rule="evenodd" d="M10.2587 23.2936L10.2587 39.5106L1.98283 39.5106L1.98283 19.8656L19.5792 2.26926L39.2242 2.26926L39.2242 10.5451L23.0072 10.5451L10.2587 23.2936Z" fill="#FFD43E"/><path fill-rule="evenodd" clip-rule="evenodd" d="M29.569 31.5695L29.569 39.5106L21.2932 39.5106L21.2932 28.1415L27.855 21.5796L39.2242 21.5796L39.2242 29.8555L31.283 29.8555L29.569 31.5695Z" fill="#EA721B"/></g>
        <g id="logotype" transform="translate(47, 8)"><path fill="#111111" d="M19.43 27.34L19.43 27.34Q16.05 27.34 13.37 25.80Q10.70 24.27 9.15 21.34Q7.61 18.42 7.61 14.29L7.61 14.29Q7.61 10.13 9.16 7.20Q10.72 4.27 13.40 2.73Q16.08 1.19 19.43 1.19L19.43 1.19Q21.60 1.19 23.47 1.80Q25.35 2.41 26.80 3.57Q28.25 4.73 29.17 6.42Q30.10 8.10 30.39 10.23L30.39 10.23L25.11 10.23Q24.94 9.19 24.45 8.38Q23.96 7.57 23.24 7.00Q22.51 6.42 21.57 6.12Q20.63 5.83 19.54 5.83L19.54 5.83Q17.55 5.83 16.05 6.82Q14.54 7.81 13.72 9.70Q12.90 11.58 12.90 14.29L12.90 14.29Q12.90 17.04 13.74 18.92Q14.58 20.80 16.07 21.75Q17.55 22.71 19.52 22.71L19.52 22.71Q20.61 22.71 21.54 22.41Q22.47 22.11 23.22 21.54Q23.96 20.97 24.45 20.15Q24.94 19.33 25.12 18.30L25.12 18.30L30.40 18.30Q30.20 20.06 29.35 21.69Q28.51 23.31 27.11 24.59Q25.70 25.87 23.77 26.61Q21.84 27.34 19.43 27.34ZM40.35 27.38L40.35 27.38Q37.48 27.38 35.38 26.14Q33.27 24.90 32.14 22.68Q31.00 20.47 31.00 17.53L31.00 17.53Q31.00 14.56 32.14 12.35Q33.27 10.13 35.38 8.89Q37.48 7.65 40.35 7.65L40.35 7.65Q43.24 7.65 45.33 8.89Q47.42 10.13 48.56 12.35Q49.70 14.56 49.70 17.53L49.70 17.53Q49.70 20.47 48.56 22.68Q47.42 24.90 45.33 26.14Q43.24 27.38 40.35 27.38ZM40.35 23.34L40.35 23.34Q41.72 23.34 42.64 22.58Q43.56 21.82 44.02 20.50Q44.48 19.17 44.48 17.52L44.48 17.52Q44.48 15.82 44.02 14.51Q43.56 13.19 42.64 12.44Q41.72 11.69 40.35 11.69L40.35 11.69Q38.98 11.69 38.07 12.44Q37.15 13.19 36.69 14.51Q36.23 15.82 36.23 17.52L36.23 17.52Q36.23 19.17 36.69 20.50Q37.15 21.82 38.07 22.58Q38.98 23.34 40.35 23.34ZM56.12 27L50.99 27L50.99 7.89L55.74 7.89L56.00 12.64L55.62 12.64Q56.07 10.88 56.93 9.77Q57.80 8.66 58.96 8.13Q60.12 7.60 61.40 7.60L61.40 7.60Q63.47 7.60 64.73 8.91Q66.00 10.22 66.60 12.95L66.60 12.95L66.00 12.95Q66.43 11.12 67.39 9.94Q68.36 8.75 69.68 8.18Q71.01 7.60 72.46 7.60L72.46 7.60Q74.22 7.60 75.59 8.37Q76.97 9.14 77.76 10.59Q78.56 12.03 78.56 14.11L78.56 14.11L78.56 27L73.43 27L73.43 15.09Q73.43 13.46 72.55 12.68Q71.67 11.89 70.39 11.89L70.39 11.89Q69.43 11.89 68.72 12.31Q68.01 12.73 67.63 13.48Q67.25 14.23 67.25 15.24L67.25 15.24L67.25 27L62.29 27L62.29 14.95Q62.29 13.55 61.46 12.72Q60.63 11.89 59.32 11.89L59.32 11.89Q58.41 11.89 57.68 12.30Q56.96 12.71 56.54 13.51Q56.12 14.30 56.12 15.45L56.12 15.45L56.12 27ZM85.79 27L80.66 27L80.66 7.89L85.41 7.89L85.67 12.64L85.29 12.64Q85.74 10.88 86.60 9.77Q87.46 8.66 88.62 8.13Q89.79 7.60 91.07 7.60L91.07 7.60Q93.13 7.60 94.40 8.91Q95.66 10.22 96.26 12.95L96.26 12.95L95.66 12.95Q96.09 11.12 97.06 9.94Q98.02 8.75 99.35 8.18Q100.67 7.60 102.12 7.60L102.12 7.60Q103.88 7.60 105.26 8.37Q106.64 9.14 107.43 10.59Q108.23 12.03 108.23 14.11L108.23 14.11L108.23 27L103.10 27L103.10 15.09Q103.10 13.46 102.22 12.68Q101.34 11.89 100.06 11.89L100.06 11.89Q99.10 11.89 98.39 12.31Q97.68 12.73 97.30 13.48Q96.91 14.23 96.91 15.24L96.91 15.24L96.91 27L91.96 27L91.96 14.95Q91.96 13.55 91.13 12.72Q90.30 11.89 88.98 11.89L88.98 11.89Q88.08 11.89 87.35 12.30Q86.62 12.71 86.21 13.51Q85.79 14.30 85.79 15.45L85.79 15.45L85.79 27ZM116.90 27.24L116.90 27.24Q114.92 27.24 113.44 26.38Q111.95 25.51 111.14 23.90Q110.33 22.28 110.33 20.04L110.33 20.04L110.33 7.89L115.45 7.89L115.45 19.16Q115.45 20.93 116.38 21.94Q117.30 22.95 118.90 22.95L118.90 22.95Q120.00 22.95 120.84 22.48Q121.67 22.01 122.14 21.11Q122.61 20.22 122.61 18.95L122.61 18.95L122.61 7.89L127.74 7.89L127.74 27L122.90 27L122.84 22.23L123.13 22.23Q122.37 24.64 120.83 25.94Q119.28 27.24 116.90 27.24ZM134.97 15.94L134.97 15.94L134.97 27L129.84 27L129.84 7.89L134.68 7.89L134.76 12.66L134.45 12.66Q135.21 10.27 136.74 8.96Q138.27 7.65 140.69 7.65L140.69 7.65Q142.67 7.65 144.14 8.52Q145.61 9.38 146.43 11.00Q147.25 12.61 147.25 14.85L147.25 14.85L147.25 27L142.13 27L142.13 15.74Q142.13 13.96 141.21 12.95Q140.30 11.94 138.68 11.94L138.68 11.94Q137.60 11.94 136.75 12.41Q135.91 12.88 135.44 13.77Q134.97 14.66 134.97 15.94ZM154.48 27L149.35 27L149.35 7.89L154.48 7.89L154.48 27ZM151.92 5.40L151.92 5.40Q150.76 5.40 149.94 4.63Q149.12 3.86 149.12 2.77L149.12 2.77Q149.12 1.67 149.94 0.90Q150.76 0.13 151.92 0.13L151.92 0.13Q153.08 0.13 153.91 0.90Q154.74 1.66 154.74 2.77L154.74 2.77Q154.74 3.86 153.91 4.63Q153.08 5.40 151.92 5.40ZM154.72 7.89L166.05 7.89L166.05 11.81L154.72 11.81L154.72 7.89ZM157.35 21.86L157.35 3.35L162.48 3.35L162.48 21.41Q162.48 22.32 162.88 22.75Q163.28 23.19 164.22 23.19L164.22 23.19Q164.51 23.19 165.04 23.11Q165.57 23.04 165.84 22.97L165.84 22.97L166.58 26.81Q165.72 27.07 164.88 27.17Q164.03 27.27 163.26 27.27L163.26 27.27Q160.39 27.27 158.87 25.87Q157.35 24.47 157.35 21.86L157.35 21.86ZM172.23 27L167.11 27L167.11 7.89L172.23 7.89L172.23 27ZM169.67 5.40L169.67 5.40Q168.51 5.40 167.69 4.63Q166.87 3.86 166.87 2.77L166.87 2.77Q166.87 1.67 167.69 0.90Q168.51 0.13 169.67 0.13L169.67 0.13Q170.83 0.13 171.66 0.90Q172.49 1.66 172.49 2.77L172.49 2.77Q172.49 3.86 171.66 4.63Q170.83 5.40 169.67 5.40ZM182.95 27.38L182.95 27.38Q180.02 27.38 177.91 26.18Q175.79 24.98 174.65 22.78Q173.51 20.57 173.51 17.55L173.51 17.55Q173.51 14.59 174.64 12.37Q175.77 10.15 177.84 8.90Q179.90 7.65 182.69 7.65L182.69 7.65Q184.57 7.65 186.19 8.25Q187.82 8.85 189.05 10.06Q190.28 11.26 190.97 13.07Q191.66 14.88 191.66 17.34L191.66 17.34L191.66 18.78L175.62 18.78L175.62 15.57L189.15 15.57L186.76 16.42Q186.76 14.93 186.31 13.83Q185.85 12.73 184.95 12.12Q184.06 11.52 182.72 11.52L182.72 11.52Q181.41 11.52 180.48 12.13Q179.55 12.75 179.07 13.80Q178.59 14.85 178.59 16.20L178.59 16.20L178.59 18.47Q178.59 20.13 179.14 21.26Q179.70 22.39 180.70 22.95Q181.70 23.51 183.03 23.51L183.03 23.51Q183.94 23.51 184.67 23.26Q185.41 23.00 185.93 22.50Q186.45 21.99 186.72 21.26L186.72 21.26L191.37 22.13Q190.91 23.70 189.77 24.89Q188.62 26.08 186.90 26.73Q185.19 27.38 182.95 27.38ZM200.48 27.38L200.48 27.38Q198.17 27.38 196.39 26.72Q194.62 26.06 193.49 24.80Q192.36 23.55 192.04 21.77L192.04 21.77L196.80 20.95Q197.18 22.28 198.12 22.95Q199.06 23.62 200.63 23.62L200.63 23.62Q202.09 23.62 202.94 23.06Q203.79 22.51 203.79 21.65L203.79 21.65Q203.79 20.90 203.19 20.42Q202.58 19.94 201.33 19.69L201.33 19.69L198.04 19.00Q195.27 18.44 193.90 17.08Q192.53 15.72 192.53 13.58L192.53 13.58Q192.53 11.74 193.54 10.41Q194.55 9.09 196.34 8.37Q198.14 7.65 200.56 7.65L200.56 7.65Q202.82 7.65 204.48 8.28Q206.14 8.90 207.16 10.05Q208.19 11.19 208.53 12.75L208.53 12.75L203.98 13.55Q203.69 12.58 202.86 11.95Q202.03 11.33 200.63 11.33L200.63 11.33Q199.37 11.33 198.51 11.86Q197.66 12.39 197.66 13.26L197.66 13.26Q197.66 13.99 198.21 14.49Q198.77 14.99 200.12 15.26L200.12 15.26L203.56 15.94Q206.32 16.51 207.67 17.78Q209.02 19.05 209.02 21.10L209.02 21.10Q209.02 22.98 207.93 24.39Q206.84 25.80 204.91 26.59Q202.99 27.38 200.48 27.38Z"/></g>
        
      </svg>
    